<?xml version="1.0" encoding="UTF-8"?>
<svg width="700pt" height="700pt" version="1.1" viewBox="0 0 800 800" xmlns="http://www.w3.org/2000/svg" xmlns:xlink="http://www.w3.org/1999/xlink">
 <defs>
  <symbol id="h" overflow="visible">
   <path d="m18.766-1.125c-0.96875 0.5-1.9805 0.875-3.0312 1.125-1.043 0.25781-2.1367 0.39062-3.2812 0.39062-3.3984 0-6.0898-0.94531-8.0781-2.8438-1.9922-1.9062-2.9844-4.4844-2.9844-7.7344 0-3.2578 0.99219-5.8359 2.9844-7.7344 1.9883-1.9062 4.6797-2.8594 8.0781-2.8594 1.1445 0 2.2383 0.13281 3.2812 0.39062 1.0508 0.25 2.0625 0.625 3.0312 1.125v4.2188c-0.98047-0.65625-1.9453-1.1406-2.8906-1.4531-0.94922-0.3125-1.9492-0.46875-3-0.46875-1.875 0-3.3516 0.60547-4.4219 1.8125-1.0742 1.1992-1.6094 2.8555-1.6094 4.9688 0 2.1055 0.53516 3.7617 1.6094 4.9688 1.0703 1.1992 2.5469 1.7969 4.4219 1.7969 1.0508 0 2.0508-0.14844 3-0.45312 0.94531-0.3125 1.9102-0.80078 2.8906-1.4688z"/>
  </symbol>
 </defs>
 <g>
  <path d="m588 161.28c-4.4805-8.3984-15.121-12.32-23.52-7.8398-8.3984 4.4805-12.32 15.121-7.8398 23.52 16.238 31.922 24.078 66.078 24.078 103.04s-8.3984 71.121-24.078 103.04c-4.4805 8.3984-1.1211 19.039 7.8398 23.52 2.8008 1.1211 5.0391 1.6797 7.8398 1.6797 6.1602 0 12.32-3.3594 15.68-9.5195 18.48-36.961 28-76.719 28-118.72s-9.5195-81.762-28-118.72z"/>
  <path d="m135.52 153.44c-8.3984-4.4805-19.039-1.1211-23.52 7.8398-18.48 36.961-28 76.719-28 118.72s9.5195 81.762 28 118.72c2.8008 6.1602 8.9609 9.5195 15.68 9.5195 2.8008 0 5.0391-0.55859 7.8398-1.6797 8.3984-4.4805 12.32-15.121 7.8398-23.52-16.238-31.918-24.641-66.641-24.641-103.04s8.3984-71.121 24.078-103.04c4.4844-8.4023 1.125-19.039-7.2773-23.52z"/>
  <path d="m493.92 188.72c-8.3984 4.4805-12.32 15.121-7.8398 23.52 10.641 21.281 16.238 43.68 16.238 67.762 0 24.078-5.6016 46.48-16.238 67.762-4.4805 8.3984-1.1211 19.039 7.8398 23.52 2.8008 1.1211 5.0391 1.6797 7.8398 1.6797 6.1602 0 12.32-3.3594 15.68-9.5195 12.879-25.762 19.602-54.32 19.602-83.441s-6.7188-57.68-19.602-83.441c-4.4805-8.3984-15.121-11.758-23.52-7.8398z"/>
  <path d="m206.08 188.72c-8.3984-4.4805-19.039-1.1211-23.52 7.8398-12.879 25.762-19.602 54.32-19.602 83.441s6.7188 57.68 19.602 83.441c2.8008 6.1602 8.9609 9.5195 15.68 9.5195 2.8008 0 5.6016-0.55859 7.8398-1.6797 8.3984-4.4805 12.32-15.121 7.8398-23.52-10.641-21.281-16.238-43.68-16.238-67.762 0-24.078 5.6016-46.48 16.238-67.762 4.4805-8.3984 1.1211-19.039-7.8398-23.52z"/>
  <path d="m350 171.92c-59.359 0-108.08 48.719-108.08 108.08s48.719 108.08 108.08 108.08 108.08-48.719 108.08-108.08-48.156-108.08-108.08-108.08zm35.84 113.68-49.84 33.039c-4.4805 2.8008-10.078 0-10.078-5.6016v-66.078c0-5.0391 5.6016-8.3984 10.078-5.6016l49.84 33.039c3.3594 2.8008 3.3594 8.4023 0 11.203z"/>
 </g>
</svg>
